<svg xmlns="http://www.w3.org/2000/svg" viewBox="0 0 160 120" fill="none" role="img" aria-hidden="true">
  <rect x="18" y="14" width="88" height="92" rx="4" fill="#F7F3EA" stroke="#C9B896"/>
  <rect x="30" y="28" width="52" height="5" rx="1.5" fill="#0B1F4D" opacity="0.85"/>
  <rect x="30" y="40" width="64" height="3.5" rx="1" fill="#3D4450" opacity="0.35"/>
  <rect x="30" y="48" width="58" height="3.5" rx="1" fill="#3D4450" opacity="0.28"/>
  <rect x="28" y="58" width="68" height="14" rx="2" fill="#FFE566"/>
  <rect x="34" y="63" width="40" height="3.5" rx="1" fill="#5C4500" opacity="0.55"/>
  <rect x="30" y="80" width="48" height="3.5" rx="1" fill="#3D4450" opacity="0.28"/>
  <rect x="30" y="88" width="36" height="3.5" rx="1" fill="#3D4450" opacity="0.22"/>
  <rect x="62" y="30" width="80" height="78" rx="4" fill="#FFFFFF" stroke="#9DBCE8" opacity="0.98"/>
  <rect x="74" y="42" width="44" height="5" rx="1.5" fill="#12306E"/>
  <rect x="74" y="54" width="56" height="3" rx="1" fill="#6B7380" opacity="0.4"/>
  <rect x="74" y="62" width="50" height="3" rx="1" fill="#6B7380" opacity="0.32"/>
  <rect x="74" y="74" width="34" height="10" rx="2" fill="#E8F3FF" stroke="#9DBCE8"/>
  <rect x="112" y="74" width="22" height="10" rx="2" fill="#FFF8E1" stroke="#E6C200"/>
  <circle cx="132" cy="28" r="14" fill="#1A3F8A"/>
  <path d="M126 28h12M132 22v12" stroke="#FFFFFF" stroke-width="2" stroke-linecap="round"/>
</svg>
